<svg width="24" height="24" viewBox="0 0 24 24" fill="none" xmlns="http://www.w3.org/2000/svg">
<g clip-path="url(#clip0_2082_2699)">
<path d="M22.8 10.8H21.516C21.2482 8.68797 20.2859 6.72489 18.7805 5.2195C17.2751 3.71411 15.312 2.75183 13.2 2.484V1.2C13.2 0.88174 13.0736 0.576515 12.8485 0.351472C12.6235 0.126428 12.3183 0 12 0C11.6817 0 11.3765 0.126428 11.1515 0.351472C10.9264 0.576515 10.8 0.88174 10.8 1.2V2.484C8.68797 2.75183 6.72489 3.71411 5.2195 5.2195C3.71411 6.72489 2.75183 8.68797 2.484 10.8H1.2C0.88174 10.8 0.576515 10.9264 0.351472 11.1515C0.126428 11.3765 0 11.6817 0 12C0 12.3183 0.126428 12.6235 0.351472 12.8485C0.576515 13.0736 0.88174 13.2 1.2 13.2H2.484C2.75183 15.312 3.71411 17.2751 5.2195 18.7805C6.72489 20.2859 8.68797 21.2482 10.8 21.516V22.8C10.8 23.1183 10.9264 23.4235 11.1515 23.6485C11.3765 23.8736 11.6817 24 12 24C12.3183 24 12.6235 23.8736 12.8485 23.6485C13.0736 23.4235 13.2 23.1183 13.2 22.8V21.516C15.312 21.2482 17.2751 20.2859 18.7805 18.7805C20.2859 17.2751 21.2482 15.312 21.516 13.2H22.8C23.1183 13.2 23.4235 13.0736 23.6485 12.8485C23.8736 12.6235 24 12.3183 24 12C24 11.6817 23.8736 11.3765 23.6485 11.1515C23.4235 10.9264 23.1183 10.8 22.8 10.8ZM18 13.2H19.092C18.8419 14.6717 18.1405 16.0293 17.0849 17.0849C16.0293 18.1405 14.6717 18.8419 13.2 19.092V18C13.2 17.6817 13.0736 17.3765 12.8485 17.1515C12.6235 16.9264 12.3183 16.8 12 16.8C11.6817 16.8 11.3765 16.9264 11.1515 17.1515C10.9264 17.3765 10.8 17.6817 10.8 18V19.092C9.32827 18.8419 7.97066 18.1405 6.91507 17.0849C5.85948 16.0293 5.1581 14.6717 4.908 13.2H6C6.31826 13.2 6.62348 13.0736 6.84853 12.8485C7.07357 12.6235 7.2 12.3183 7.2 12C7.2 11.6817 7.07357 11.3765 6.84853 11.1515C6.62348 10.9264 6.31826 10.8 6 10.8H4.908C5.1581 9.32827 5.85948 7.97066 6.91507 6.91507C7.97066 5.85948 9.32827 5.1581 10.8 4.908V6C10.8 6.31826 10.9264 6.62348 11.1515 6.84853C11.3765 7.07357 11.6817 7.2 12 7.2C12.3183 7.2 12.6235 7.07357 12.8485 6.84853C13.0736 6.62348 13.2 6.31826 13.2 6V4.908C14.6717 5.1581 16.0293 5.85948 17.0849 6.91507C18.1405 7.97066 18.8419 9.32827 19.092 10.8H18C17.6817 10.8 17.3765 10.9264 17.1515 11.1515C16.9264 11.3765 16.8 11.6817 16.8 12C16.8 12.3183 16.9264 12.6235 17.1515 12.8485C17.3765 13.0736 17.6817 13.2 18 13.2ZM12 10.8C11.7627 10.8 11.5307 10.8704 11.3333 11.0022C11.136 11.1341 10.9822 11.3215 10.8913 11.5408C10.8005 11.7601 10.7768 12.0013 10.8231 12.2341C10.8694 12.4669 10.9836 12.6807 11.1515 12.8485C11.3193 13.0164 11.5331 13.1306 11.7659 13.1769C11.9987 13.2232 12.2399 13.1995 12.4592 13.1087C12.6785 13.0178 12.8659 12.864 12.9978 12.6667C13.1296 12.4693 13.2 12.2373 13.2 12C13.2 11.6817 13.0736 11.3765 12.8485 11.1515C12.6235 10.9264 12.3183 10.8 12 10.8Z" fill="#0A65CC"/>
</g>
<defs>
<clipPath id="clip0_2082_2699">
<rect width="24" height="24" fill="white"/>
</clipPath>
</defs>
</svg>
