<svg width="24" height="18" viewBox="0 0 24 18" fill="none" xmlns="http://www.w3.org/2000/svg">
<path d="M23.904 8.55C21.5818 3.27375 17.2134 0 12.5 0C7.78664 0 3.41816 3.27375 1.09597 8.55C1.03267 8.69194 1 8.84513 1 9C1 9.15487 1.03267 9.30806 1.09597 9.45C3.41816 14.7262 7.78664 18 12.5 18C17.2134 18 21.5818 14.7262 23.904 9.45C23.9673 9.30806 24 9.15487 24 9C24 8.84513 23.9673 8.69194 23.904 8.55ZM12.5 15.75C8.85577 15.75 5.40697 13.1737 3.41816 9C5.40697 4.82625 8.85577 2.25 12.5 2.25C16.1442 2.25 19.593 4.82625 21.5818 9C19.593 13.1737 16.1442 15.75 12.5 15.75ZM12.5 4.5C11.5905 4.5 10.7015 4.76392 9.94527 5.25839C9.18906 5.75285 8.59968 6.45566 8.25163 7.27792C7.90359 8.10019 7.81253 9.00499 7.98996 9.87791C8.16739 10.7508 8.60534 11.5526 9.24844 12.182C9.89154 12.8113 10.7109 13.2399 11.6029 13.4135C12.4949 13.5872 13.4195 13.4981 14.2597 13.1575C15.1 12.8169 15.8181 12.2401 16.3234 11.5001C16.8287 10.76 17.0984 9.89002 17.0984 9C17.0984 7.80653 16.6139 6.66193 15.7516 5.81802C14.8892 4.97411 13.7196 4.5 12.5 4.5ZM12.5 11.25C12.0453 11.25 11.6007 11.118 11.2226 10.8708C10.8445 10.6236 10.5498 10.2722 10.3758 9.86104C10.2018 9.4499 10.1563 8.9975 10.245 8.56105C10.3337 8.12459 10.5527 7.72368 10.8742 7.40901C11.1958 7.09434 11.6054 6.88005 12.0514 6.79323C12.4974 6.70642 12.9597 6.75097 13.3799 6.92127C13.8 7.09157 14.1591 7.37996 14.4117 7.74997C14.6644 8.11998 14.7992 8.55499 14.7992 9C14.7992 9.59674 14.557 10.169 14.1258 10.591C13.6946 11.0129 13.1098 11.25 12.5 11.25Z" fill="#0A65CC"/>
</svg>
