<svg width="21" height="26" viewBox="0 0 21 26" fill="none" xmlns="http://www.w3.org/2000/svg">
<g clip-path="url(#clip0_2082_2704)">
<path d="M19.018 7.6734L20.1646 6.5394C20.4019 6.30214 20.5352 5.98034 20.5352 5.6448C20.5352 5.30926 20.4019 4.98746 20.1646 4.7502C19.9274 4.51294 19.6056 4.37964 19.27 4.37964C18.9345 4.37964 18.6127 4.51294 18.3754 4.7502L17.2414 5.8968C15.4756 4.53078 13.3063 3.78962 11.0737 3.78962C8.84121 3.78962 6.67186 4.53078 4.90603 5.8968L3.75943 4.7376C3.5205 4.50034 3.1971 4.36771 2.86038 4.36889C2.52366 4.37007 2.2012 4.50497 1.96393 4.7439C1.72667 4.98283 1.59404 5.30623 1.59522 5.64295C1.5964 5.97968 1.7313 6.30214 1.97023 6.5394L3.12943 7.686C1.74723 9.44691 0.997249 11.6214 1.00003 13.86C0.995918 15.467 1.3761 17.0518 2.10886 18.482C2.84163 19.9123 3.90574 21.1466 5.21245 22.082C6.51917 23.0175 8.0306 23.627 9.62071 23.8596C11.2108 24.0923 12.8335 23.9414 14.3535 23.4195C15.8734 22.8976 17.2465 22.0199 18.3583 20.8595C19.4701 19.6991 20.2884 18.2897 20.7448 16.7489C21.2013 15.208 21.2827 13.5804 20.9823 12.0017C20.682 10.423 20.0085 8.93895 19.018 7.6734ZM11.08 21.42C9.58481 21.42 8.12316 20.9766 6.87992 20.1459C5.63669 19.3152 4.6677 18.1345 4.0955 16.7531C3.52331 15.3717 3.37359 13.8516 3.6653 12.3851C3.957 10.9186 4.67702 9.57156 5.73431 8.51427C6.79159 7.45699 8.13865 6.73697 9.60515 6.44526C11.0716 6.15356 12.5917 6.30327 13.9731 6.87547C15.3545 7.44767 16.5352 8.41665 17.3659 9.65989C18.1966 10.9031 18.64 12.3648 18.64 13.86C18.64 15.865 17.8435 17.788 16.4258 19.2057C15.008 20.6235 13.0851 21.42 11.08 21.42ZM8.56003 2.52H13.6C13.9342 2.52 14.2547 2.38725 14.491 2.15095C14.7273 1.91466 14.86 1.59417 14.86 1.26C14.86 0.925827 14.7273 0.605341 14.491 0.369045C14.2547 0.13275 13.9342 0 13.6 0H8.56003C8.22586 0 7.90537 0.13275 7.66908 0.369045C7.43278 0.605341 7.30003 0.925827 7.30003 1.26C7.30003 1.59417 7.43278 1.91466 7.66908 2.15095C7.90537 2.38725 8.22586 2.52 8.56003 2.52ZM12.34 10.08C12.34 9.74583 12.2073 9.42534 11.971 9.18904C11.7347 8.95275 11.4142 8.82 11.08 8.82C10.7459 8.82 10.4254 8.95275 10.1891 9.18904C9.95278 9.42534 9.82003 9.74583 9.82003 10.08V12.4614C9.53473 12.7166 9.33364 13.0524 9.24336 13.4243C9.15308 13.7963 9.17787 14.1869 9.31445 14.5445C9.45103 14.9021 9.69296 15.2098 10.0082 15.4268C10.3235 15.6439 10.6973 15.7601 11.08 15.7601C11.4628 15.7601 11.8366 15.6439 12.1518 15.4268C12.4671 15.2098 12.709 14.9021 12.8456 14.5445C12.9822 14.1869 13.007 13.7963 12.9167 13.4243C12.8264 13.0524 12.6253 12.7166 12.34 12.4614V10.08Z" fill="#0A65CC"/>
</g>
<defs>
<clipPath id="clip0_2082_2704">
<rect width="21" height="25.2" fill="white"/>
</clipPath>
</defs>
</svg>
